<?xml version="1.0" encoding="utf-8" standalone="no"?>
<svg xmlns="http://www.w3.org/2000/svg" version="1.1" viewBox="0 0 470 448" width="470" height="448">
    <g>
        <path id="1b" d="M 116 62 L 232 120 L 232 254 L 116 196 L 116 62 Z" stroke="#000000" stroke-width="0" fill="#000000" stroke-miterlimit="1"></path>
        <path id="1w" d="M 232 120 L 232 254 L 350 196 L 350 62 L 232 120 Z" stroke="#808080" stroke-width="0.5" fill="#FFFFFF" stroke-miterlimit="1"></path>
        <path id="1g" d="M 116 62 L 232 2 L 350 62 L 232 120 L 116 62 Z" stroke="#808080" stroke-width="0" fill="#808080" stroke-miterlimit="1"></path>
        <path id="2b" d="M 2 254 L 116 312 L 116 446 L 2 388 L 2 254 Z" stroke="#000000" stroke-width="0" fill="#000000" stroke-miterlimit="1"></path>
        <path id="2w" d="M 116 312 L 116 446 L 232 388 L 232 254 L 116 312 Z" stroke="#808080" stroke-width="0.5" fill="#FFFFFF" stroke-miterlimit="1"></path>
        <path id="2g" d="M 2 254 L 116 196 L 232 254 L 116 312 L 2 254 Z" stroke="#808080" stroke-width="0" fill="#808080" stroke-miterlimit="1"></path>
        <path id="3b" d="M 232 254 L 350 312 L 350 446 L 232 388 L 232 254 Z" stroke="#000000" stroke-width="0" fill="#000000" stroke-miterlimit="1"></path>
        <path id="3w" d="M 350 312 L 350 446 L 468 388 L 468 254 L 350 312 Z" stroke="#808080" stroke-width="0.5" fill="#FFFFFF" stroke-miterlimit="1"></path>
        <path id="3g" d="M 232 254 L 350 196 L 468 254 L 350 312 L 232 254 Z" stroke="#808080" stroke-width="0" fill="#808080" stroke-miterlimit="1"></path>
    </g>
</svg>
